# Blender 4.0.2
# www.blender.org
mtllib apart shadow cover.mtl
g wall_cover_Cube.021
v 1.242146 0.000001 1.870414
v -1.776949 0.000001 1.870414
v 1.242146 2.400591 1.870414
v -1.776949 2.400591 1.870414
v 1.242146 0.000001 -4.150174
v -1.776949 0.000001 -4.150174
v 1.242146 2.400591 -4.150174
v -1.776949 2.400591 -4.150174
v 1.242146 2.600087 1.870414
v -1.776949 2.600087 1.870414
v 1.242146 2.600087 -4.150174
v -1.776949 2.600087 -4.150174
vn -0.0000 -0.0000 -1.0000
vn -1.0000 -0.0000 -0.0000
vn 1.0000 -0.0000 -0.0000
vn -0.0000 1.0000 -0.0000
vn -0.0000 -0.0000 1.0000
vt 0.603791 0.269146
vt 0.603791 0.594062
vt 0.345439 0.594062
vt 0.345439 0.269146
vt 0.000000 0.000000
s 0
g wall_cover_black
usemtl black
f 7/1/1 8/2/1 12/2/1 11/1/1
f 2/3/2 4/2/2 8/2/2 6/3/2
f 6/3/1 8/2/1 7/1/1 5/4/1
f 3/1/3 1/4/3 5/4/3 7/1/3
f 10/2/4 9/1/4 11/1/4 12/2/4
f 4/5/5 3/5/5 9/5/5 10/5/5
f 8/2/2 4/2/2 10/2/2 12/2/2
f 3/1/3 7/1/3 11/1/3 9/1/3
