# Blender 4.0.2
# www.blender.org
mtllib covers-bed.mtl
g covers.001_covers.001
v -1.543841 1.759652 -0.091583
v -1.543841 1.081064 -0.091583
v -1.543841 1.081065 1.023108
v -1.543841 1.759652 1.023108
v -1.543841 1.759652 0.332377
v -1.543841 1.081064 0.332377
v -1.543841 1.552711 1.023108
v -1.543841 1.315572 1.023108
v -1.543841 1.315572 0.332377
v -1.543841 1.315572 -0.091583
v -1.543841 1.525228 1.023108
v -1.543841 1.081064 0.360465
v -1.543841 1.759652 0.360465
v -1.543841 1.552711 0.360465
v -1.543841 1.525228 0.360465
v -1.543841 1.315572 0.360465
v -1.543841 1.288155 0.332377
v -1.543841 1.288155 -0.091583
v -1.543841 1.288155 0.360465
v -1.543841 1.081065 0.824127
v -1.543841 1.759652 0.558831
v -1.543841 1.525228 0.558831
v -1.543841 1.552711 0.558831
v -1.543841 1.315572 0.558831
v -1.543841 1.525228 0.596462
v -1.543841 1.759652 0.596462
v -1.543841 1.552711 0.596462
v -1.543841 1.315572 0.596462
v -1.543841 1.759652 0.796038
v -1.543841 1.552711 0.796038
v -1.543841 1.552711 0.824261
v -1.543841 1.759652 0.824261
v -1.543841 1.296787 1.023108
v -1.543841 1.296787 0.824127
v -1.543841 1.288155 0.133928
v -1.543841 1.081064 0.133928
v -1.543841 1.081064 0.105369
v -1.543841 1.288155 0.105369
v -1.543841 1.288155 0.786264
v -1.543841 1.081065 0.786263
v -1.543841 1.774247 -0.868703
v -1.543841 1.058915 -0.868703
v -1.543841 1.774247 -0.152172
v -1.543841 1.057298 -0.152172
v -1.538932 1.774247 -0.629859
v -1.538932 1.774247 -0.391015
v -1.538932 1.057837 -0.391015
v -1.538932 1.058376 -0.629859
v -1.538932 1.535803 -0.868703
v -1.538932 1.297359 -0.868703
v -1.538932 1.535264 -0.152172
v -1.538932 1.296281 -0.152172
v -1.534166 1.535623 -0.629859
v -1.534166 1.296999 -0.629859
v -1.534166 1.535444 -0.391015
v -1.534166 1.296640 -0.391015
vn -1.0000 -0.0000 -0.0000
vn -0.9999 0.0101 -0.0100
vn -0.9997 0.0201 -0.0101
vn -0.9996 0.0202 -0.0202
vn -0.9997 0.0101 -0.0201
vn -0.9997 0.0101 0.0201
vn -0.9996 0.0203 0.0203
vn -0.9997 0.0201 0.0101
vn -0.9999 0.0101 0.0101
vn -0.9997 -0.0201 0.0101
vn -0.9999 -0.0101 0.0100
vn -0.9999 -0.0101 -0.0101
vn -0.9997 -0.0201 -0.0101
vn -0.9996 -0.0203 0.0202
vn -0.9997 -0.0101 0.0201
vn -0.9997 -0.0101 -0.0201
vn -0.9996 -0.0202 -0.0203
vt 0.494219 0.191339
vt 0.515521 0.191339
vt 0.515521 0.169067
vt 0.494219 0.169067
vt 0.518558 0.169067
vt 0.518558 0.191339
vt 0.540035 0.191339
vt 0.540035 0.169067
vt 0.544084 0.169067
vt 0.544084 0.191339
vt 0.565431 0.191339
vt 0.565141 0.169067
vt 0.568454 0.191339
vt 0.614078 0.191339
vt 0.614078 0.143666
vt 0.568454 0.143666
vt 0.614078 0.140594
vt 0.614078 0.118305
vt 0.592883 0.118305
vt 0.592883 0.140594
vt 0.568454 0.118305
vt 0.568454 0.140594
vt 0.589810 0.140594
vt 0.589810 0.118305
vt 0.565431 0.118305
vt 0.519610 0.118305
vt 0.519610 0.140594
vt 0.565431 0.140594
vt 0.495044 0.118305
vt 0.495044 0.141523
vt 0.515535 0.141523
vt 0.515535 0.118305
vt 0.540035 0.143666
vt 0.495044 0.143666
vt 0.494219 0.165406
vt 0.540035 0.165955
vt 0.544084 0.165955
vt 0.565141 0.165955
vt 0.565431 0.143666
vt 0.544084 0.143666
vt 0.000000 0.000000
s 0
g covers.001_empty
usemtl empty
f 4/1/1 32/2/1 31/3/1 7/4/1
f 30/5/1 29/6/1 26/7/1 27/8/1
f 23/9/1 21/10/1 13/11/1 14/12/1
f 5/13/1 1/14/1 10/15/1 9/16/1
f 18/17/1 2/18/1 37/19/1 38/20/1
f 6/21/1 17/22/1 35/23/1 36/24/1
f 12/25/1 40/26/1 39/27/1 19/28/1
f 3/29/1 33/30/1 34/31/1 20/32/1
f 28/33/1 8/34/1 11/35/1 25/36/1
f 22/37/1 15/38/1 16/39/1 24/40/1
s 1
f 56/41/2 47/41/3 44/41/4 52/41/5
f 50/41/6 42/41/7 48/41/8 54/41/9
f 54/41/9 48/41/8 47/41/3 56/41/2
f 45/41/10 53/41/11 55/41/12 46/41/13
f 53/41/11 54/41/9 56/41/2 55/41/12
f 41/41/14 49/41/15 53/41/11 45/41/10
f 49/41/15 50/41/6 54/41/9 53/41/11
f 46/41/13 55/41/12 51/41/16 43/41/17
f 55/41/12 56/41/2 52/41/5 51/41/16
