# Blender 4.0.2
# www.blender.org
mtllib covers.mtl
g covers_covers
v 1.035737 1.763866 0.522380
v 1.035737 1.309928 0.522380
v 1.035737 1.763868 0.867156
v 1.035737 1.309930 0.867156
v 1.035737 1.800622 -0.395086
v 1.035737 1.292257 -0.395086
v 1.035737 1.800627 0.393471
v 1.035737 1.292261 0.393471
v -0.313148 1.217975 -1.020901
v -0.266089 1.217975 -1.020901
v -0.313148 1.208626 -1.020901
v -0.266089 1.208626 -1.020901
v -0.285573 1.157093 -1.020901
v -0.293664 1.157093 -1.020901
v -0.285573 1.208626 -1.020900
v -0.293664 1.208626 -1.020900
v -0.657224 1.153852 -1.021558
v -0.657224 1.303843 -1.021558
v -0.437382 1.153852 -1.021558
v -0.437382 1.303843 -1.021558
v -0.396384 1.154313 -1.021193
v -0.396384 1.251553 -1.021193
v -0.338500 1.154313 -1.021193
v -0.338500 1.251553 -1.021193
vn 1.0000 -0.0000 -0.0000
vn -0.0000 -0.0001 -1.0000
vn -0.0000 -0.0000 -1.0000
vt 0.697168 0.653508
vt 0.660063 0.653508
vt 0.660063 0.701636
vt 0.697168 0.701636
vt 0.795906 0.649957
vt 0.711041 0.649956
vt 0.711408 0.704118
vt 0.795906 0.703874
vt 0.569789 0.980642
vt 0.205573 0.893073
vt 0.321930 0.849757
vt 0.384718 0.316690
vt 0.042879 0.482458
vt 0.568162 0.980642
vt 0.886493 0.910001
vt 0.886492 0.901030
vt 0.911284 0.814650
vt 0.696187 0.488600
vt 0.474873 0.997988
vt 0.963817 0.607076
vt 0.696187 0.526858
vt 0.337783 0.306297
vt 0.347975 0.257439
vt 0.835080 0.178927
vt 0.337783 0.316407
s 0
g covers_empty
usemtl empty
f 1/1/1 3/2/1 4/3/1 2/4/1
f 5/5/1 7/6/1 8/7/1 6/8/1
f 12/9/2 15/10/2 16/11/2 11/12/2 9/13/2 10/14/2
f 14/15/3 16/16/3 15/10/3 13/17/3
f 17/18/3 18/19/3 20/20/3 19/21/3
f 21/22/3 22/23/3 24/24/3 23/25/3
