# Blender 4.0.2
# www.blender.org
mtllib empty.mtl
g empty_Cube.027
v 0.484357 0.000000 -0.680149
v 0.484357 2.084416 -0.680149
v 0.484357 0.000000 -1.913253
v 0.484357 2.084416 -1.913253
v 1.029986 0.000000 -0.680149
v 1.029986 2.084416 -0.680149
v 1.029986 0.000000 -1.913253
v 1.029986 2.084416 -1.913253
vn -0.0000 -0.0000 -1.0000
vn 1.0000 -0.0000 -0.0000
vn -0.0000 -0.0000 1.0000
vn -0.0000 -1.0000 -0.0000
vn -0.0000 1.0000 -0.0000
vt 0.375000 0.250000
vt 0.625000 0.250000
vt 0.625000 0.500000
vt 0.375000 0.500000
vt 0.625000 0.750000
vt 0.375000 0.750000
vt 0.625000 1.000000
vt 0.375000 1.000000
vt 0.125000 0.500000
vt 0.125000 0.750000
vt 0.875000 0.500000
vt 0.875000 0.750000
s 0
g empty_black
usemtl black
f 3/1/1 4/2/1 8/3/1 7/4/1
f 7/4/2 8/3/2 6/5/2 5/6/2
f 5/6/3 6/5/3 2/7/3 1/8/3
f 3/9/4 7/4/4 5/6/4 1/10/4
f 8/3/5 4/11/5 2/12/5 6/5/5
g empty.001_Cube.028
v -1.542320 0.000000 -2.503020
v -1.542320 1.973624 -2.503020
v -1.542320 0.000000 -3.188517
v -1.542320 1.973624 -3.188517
v -0.229177 0.000000 -2.503020
v -0.229177 1.973624 -2.503020
v -0.229177 0.000000 -3.188517
v -0.229177 1.973624 -3.188517
vn -1.0000 -0.0000 -0.0000
vn -0.0000 -0.0000 -1.0000
vn -0.0000 -0.0000 1.0000
vn -0.0000 -1.0000 -0.0000
vn -0.0000 1.0000 -0.0000
vt 0.375000 0.000000
vt 0.625000 0.000000
vt 0.625000 0.250000
vt 0.375000 0.250000
vt 0.625000 0.500000
vt 0.375000 0.500000
vt 0.375000 0.750000
vt 0.625000 0.750000
vt 0.625000 1.000000
vt 0.375000 1.000000
vt 0.125000 0.500000
vt 0.125000 0.750000
vt 0.875000 0.500000
vt 0.875000 0.750000
s 0
g empty.001_black
usemtl black
f 9/13/6 10/14/6 12/15/6 11/16/6
f 11/16/7 12/15/7 16/17/7 15/18/7
f 13/19/8 14/20/8 10/21/8 9/22/8
f 11/23/9 15/18/9 13/19/9 9/24/9
f 16/17/10 12/25/10 10/26/10 14/20/10
g empty.002_Cube.029
v -1.542320 0.000000 -2.463644
v -1.542320 1.973624 -2.463644
v -0.229177 0.000000 -1.759747
v -0.229177 1.973624 -1.759747
v -0.229177 0.000000 -2.463644
v -0.229177 1.973624 -2.463644
v -0.588450 0.000000 -1.759747
v -0.588450 1.973624 -1.759747
v -1.542320 0.000000 -1.050097
v -1.542320 1.973624 -1.050097
v -0.588450 1.973624 -1.050097
v -0.588450 0.000000 -1.050097
vn -0.0000 -0.0000 -1.0000
vn -0.0000 1.0000 -0.0000
vn -0.0000 -1.0000 -0.0000
vn -0.0000 -0.0000 1.0000
vn 1.0000 -0.0000 -0.0000
vn -1.0000 -0.0000 -0.0000
vt 0.375000 0.250000
vt 0.625000 0.250000
vt 0.625000 0.500000
vt 0.375000 0.500000
vt 0.750000 0.750000
vt 0.875000 0.750000
vt 0.125000 0.500000
vt 0.375000 0.750000
vt 0.250000 0.750000
vt 0.625000 0.750000
vt 0.625000 0.875000
vt 0.375000 0.875000
vt 0.875000 0.500000
vt 0.625000 1.000000
vt 0.375000 1.000000
vt 0.625000 0.000000
vt 0.375000 0.000000
vt 0.125000 0.750000
s 0
g empty.002_black
usemtl black
f 17/27/11 18/28/11 22/29/11 21/30/11
f 24/31/12 18/32/12 26/32/12 27/31/12
f 17/33/13 21/30/13 19/34/13 23/35/13
f 19/34/14 20/36/14 24/37/14 23/38/14
f 22/29/12 18/39/12 24/31/12 20/36/12
f 28/38/14 27/37/14 26/40/14 25/41/14
f 23/38/15 24/37/15 27/37/15 28/38/15
f 18/42/16 17/43/16 25/43/16 26/42/16
f 17/44/13 23/35/13 28/35/13 25/44/13
g empty.004_Cube.050
v 0.484357 0.000000 -3.382066
v 0.484357 1.973624 -3.382066
v 0.484357 0.000000 -3.876145
v 0.484357 1.973624 -3.876145
v 1.029986 0.000000 -3.382066
v 1.029986 1.973624 -3.382066
v 1.029986 0.000000 -3.876145
v 1.029986 1.973624 -3.876145
vn -0.0000 -0.0000 -1.0000
vn 1.0000 -0.0000 -0.0000
vn -0.0000 -0.0000 1.0000
vn -0.0000 -1.0000 -0.0000
vn -0.0000 1.0000 -0.0000
vt 0.375000 0.250000
vt 0.625000 0.250000
vt 0.625000 0.500000
vt 0.375000 0.500000
vt 0.625000 0.750000
vt 0.375000 0.750000
vt 0.625000 1.000000
vt 0.375000 1.000000
vt 0.125000 0.500000
vt 0.125000 0.750000
vt 0.875000 0.500000
vt 0.875000 0.750000
s 0
g empty.004_black
usemtl black
f 31/45/17 32/46/17 36/47/17 35/48/17
f 35/48/18 36/47/18 34/49/18 33/50/18
f 33/50/19 34/49/19 30/51/19 29/52/19
f 31/53/20 35/48/20 33/50/20 29/54/20
f 36/47/21 32/55/21 30/56/21 34/49/21
g empty.005_Cube.052
v -0.870109 0.000000 -3.876963
v -0.870109 1.768946 -3.876963
v -0.870108 0.000000 -3.231812
v -0.870108 1.768946 -3.231812
v -1.543267 0.000000 -3.876963
v -1.543267 1.768946 -3.876963
v -1.543267 0.000000 -3.231812
v -1.543267 1.768946 -3.231812
vn -0.0000 -0.0000 1.0000
vn -1.0000 -0.0000 -0.0000
vn -0.0000 -0.0000 -1.0000
vn -0.0000 -1.0000 -0.0000
vn -0.0000 1.0000 -0.0000
vt 0.375000 0.250000
vt 0.625000 0.250000
vt 0.625000 0.500000
vt 0.375000 0.500000
vt 0.625000 0.750000
vt 0.375000 0.750000
vt 0.625000 1.000000
vt 0.375000 1.000000
vt 0.125000 0.500000
vt 0.125000 0.750000
vt 0.875000 0.500000
vt 0.875000 0.750000
s 0
g empty.005_black
usemtl black
f 39/57/22 40/58/22 44/59/22 43/60/22
f 43/60/23 44/59/23 42/61/23 41/62/23
f 41/62/24 42/61/24 38/63/24 37/64/24
f 39/65/25 43/60/25 41/62/25 37/66/25
f 44/59/26 40/67/26 38/68/26 42/61/26
g apartment_walls.001_Cube.001
v -1.543841 1.973465 1.087741
v -1.543841 2.401142 1.087741
v 0.422497 1.973465 1.663643
v 0.819550 1.973460 1.087741
v 0.819550 2.401140 1.087740
v -1.543841 1.973465 1.663643
v -1.245334 1.973465 1.663643
v 0.819550 1.973465 1.663643
v -1.245334 1.973465 1.870414
v 0.422497 1.973465 1.870414
vn -0.0000 1.0000 -0.0000
vn -0.0000 -0.0000 1.0000
vt 0.086185 0.093546
vt 0.024206 0.125671
vt 0.024206 0.305164
vt 0.086185 0.347895
vt 0.929458 0.256302
vt 0.975485 0.256302
vt 0.975485 0.001953
vt 0.929458 0.001953
vt 0.001953 0.125671
vt 0.001953 0.305164
vt 0.024206 0.347895
vt 0.024206 0.093546
s 0
g apartment_walls.001_black
usemtl black
f 45/69/27 51/70/27 47/71/27 48/72/27
f 48/73/28 49/74/28 46/75/28 45/76/28
f 51/70/27 53/77/27 54/78/27 47/71/27
f 48/72/27 47/71/27 52/79/27
f 50/80/27 51/70/27 45/69/27
g apartment_walls.002_Cube.003
v 0.714426 1.990330 -1.934732
v 1.031431 1.990327 -1.934735
v 0.714426 2.180875 -1.934732
v 1.031431 1.990327 -3.362382
v 0.714426 2.180875 -3.362382
v 0.714426 1.990327 -3.362382
vn 1.0000 -0.0000 -0.0000
vn -0.0000 1.0000 -0.0000
vt 0.316229 0.610124
vt 0.316229 0.589617
vt 0.162585 0.589617
vt 0.162585 0.610124
vt 0.493361 0.364196
vt 0.493361 0.517840
vt 0.527477 0.517840
vt 0.527477 0.364196
s 0
g apartment_walls.002_black
usemtl black
f 60/81/29 59/82/29 57/83/29 55/84/29
f 56/85/30 58/86/30 60/87/30 55/88/30
