# Blender 4.0.2
# www.blender.org
mtllib wall-cover.mtl
g wall-cover_Cube.020
v 1.242146 0.000001 1.870414
v 1.242146 1.973465 1.870414
v -1.776949 0.000001 1.870414
v -1.776949 1.973465 1.870414
v 1.242146 2.400591 1.870414
v -1.776949 2.400591 1.870414
v 1.242146 0.000001 1.663640
v 1.242146 1.973465 1.663640
v -1.776949 0.000001 1.663640
v -1.776949 1.973465 1.663640
v 1.242146 2.400591 1.663640
v -1.776949 2.400591 1.663640
vn 1.0000 -0.0000 -0.0000
vn -1.0000 -0.0000 -0.0000
vt 0.603791 0.269146
vt 0.557824 0.269146
vt 0.345439 0.594062
vt 0.557824 0.594062
vt 0.603791 0.594062
vt 0.345439 0.269146
s 0
g wall-cover_apartment_walls
usemtl apartment_walls
f 5/1/1 2/2/1 8/2/1 11/1/1
f 3/3/2 4/4/2 10/4/2 9/3/2
f 4/4/2 6/5/2 12/5/2 10/4/2
f 2/2/1 1/6/1 7/6/1 8/2/1
